<?xml version="1.0" standalone="no"?>
<!DOCTYPE svg PUBLIC "-//W3C//DTD SVG 20010904//EN"
 "http://www.w3.org/TR/2001/REC-SVG-20010904/DTD/svg10.dtd">
<svg version="1.0" xmlns="http://www.w3.org/2000/svg"
 width="133.000000pt" height="111.000000pt" viewBox="0 0 133.000000 111.000000"
 preserveAspectRatio="xMidYMid meet">

<g transform="translate(0.000000,111.000000) scale(0.100000,-0.100000)"
fill="#000000" stroke="none">
<path d="M533 745 c-95 -21 -99 -25 -119 -112 -19 -86 -34 -114 -34 -66 0 17
-3 39 -6 48 -13 32 -34 -41 -27 -91 3 -24 6 -44 7 -44 0 0 30 9 64 20 126 39
305 45 419 14 29 -8 56 -14 60 -14 15 0 12 86 -5 120 l-17 35 -5 -45 -5 -45
-25 86 -24 87 -67 11 c-85 14 -138 13 -216 -4z m207 -48 c39 -20 49 -62 24
-104 l-21 -36 -76 2 c-42 1 -103 -3 -137 -10 -33 -6 -63 -9 -66 -6 -13 13 -20
74 -12 104 7 27 15 34 51 43 23 6 47 13 52 15 25 9 163 3 185 -8z"/>
<path d="M660 680 c0 -5 -7 -7 -15 -4 -15 6 -75 -46 -75 -65 0 -16 38 -33 68
-29 22 2 28 9 30 36 2 21 -1 32 -10 32 -8 0 -6 4 5 11 18 11 23 29 7 29 -5 0
-10 -4 -10 -10z m-34 -36 c-19 -18 -13 -34 12 -34 13 0 14 2 3 9 -8 5 -9 11
-3 15 18 11 25 -15 10 -31 -13 -13 -17 -13 -30 1 -9 8 -19 12 -23 8 -4 -4 0 5
10 21 9 15 22 27 27 27 5 0 2 -7 -6 -16z"/>
<path d="M922 630 c0 -19 2 -27 5 -17 2 9 2 25 0 35 -3 9 -5 1 -5 -18z"/>
<path d="M694 499 c-19 -22 -19 -22 4 -8 12 8 22 17 22 21 0 12 -6 9 -26 -13z"/>
<path d="M723 484 c-15 -14 -22 -23 -15 -19 8 4 12 -2 12 -19 0 -32 34 -53 56
-35 8 7 14 24 12 38 -2 20 -10 27 -33 32 -16 4 -22 7 -13 8 18 1 36 21 19 21
-5 0 -23 -12 -38 -26z m27 -29 c-8 -10 -8 -15 1 -20 6 -4 15 -1 20 6 7 11 9
11 9 -2 0 -19 -21 -31 -37 -21 -5 4 -12 19 -15 33 -4 22 -2 25 14 21 14 -3 16
-8 8 -17z"/>
<path d="M453 483 c-24 -16 -30 -38 -13 -48 5 -3 7 0 4 9 -3 8 2 19 13 24 17
9 18 7 15 -23 -3 -25 1 -36 15 -44 40 -21 82 36 51 68 -11 10 -9 11 7 6 20 -7
20 -6 1 9 -25 20 -64 20 -93 -1z m64 1 c-3 -3 -12 -4 -19 -1 -8 3 -5 6 6 6 11
1 17 -2 13 -5z m-16 -38 c-6 -7 -8 -16 -4 -19 13 -13 23 -7 23 15 0 15 3 19
10 12 15 -15 1 -44 -20 -44 -10 0 -21 9 -25 20 -7 23 2 43 16 34 6 -4 6 -10 0
-18z"/>
<path d="M798 484 c15 -10 21 -22 17 -33 -5 -13 -4 -13 6 -4 10 10 9 17 -6 33
-10 11 -23 20 -29 20 -6 0 0 -7 12 -16z"/>
<path d="M351 454 c0 -11 3 -14 6 -6 3 7 2 16 -1 19 -3 4 -6 -2 -5 -13z"/>
<path d="M1130 416 c-36 -13 -94 -38 -129 -55 -38 -20 -75 -31 -95 -30 -75 5
-90 -11 -27 -29 55 -17 67 -15 135 19 33 17 85 40 114 50 29 10 67 30 83 44
30 24 30 25 7 25 -13 -1 -52 -11 -88 -24z"/>
<path d="M886 412 c-2 -4 -1 -14 5 -22 7 -12 9 -10 9 8 0 23 -5 28 -14 14z"/>
<path d="M738 383 c7 -3 16 -2 19 1 4 3 -2 6 -13 5 -11 0 -14 -3 -6 -6z"/>
<path d="M850 360 c0 -5 5 -10 11 -10 5 0 7 5 4 10 -3 6 -8 10 -11 10 -2 0 -4
-4 -4 -10z"/>
<path d="M311 321 c-63 -25 -120 -77 -142 -127 -19 -42 -38 -194 -25 -194 4 0
16 5 27 10 16 9 19 22 19 84 0 65 3 77 30 115 29 39 101 94 142 107 10 3 16
10 13 15 -8 12 -12 11 -64 -10z"/>
<path d="M432 210 c0 -14 2 -19 5 -12 2 6 2 18 0 25 -3 6 -5 1 -5 -13z"/>
</g>
</svg>
